<svg id="Layer_1" enable-background="new 0 0 48 48" height="50" viewBox="0 0 48 48" width="50" xmlns="http://www.w3.org/2000/svg"><g style="fill:none;stroke:#f00;stroke-width:1.5;stroke-linecap:round;stroke-linejoin:round;stroke-miterlimit:10"><path d="m25.9 4h6.2c1.7 0 3 1.3 3 3v37.2c0 1.7-1.4 3-3 3h-27.4c-1.7 0-3-1.3-3-3v-37.2c0-1.7 1.4-3 3-3h6.2"/><path d="m23.6 6.7h-10.4c-1.2 0-2.2-1-2.2-2.2v-1.5c0-1.2 1-2.2 2.2-2.2h10.4c1.2 0 2.2 1 2.2 2.2v1.5c.1 1.2-1 2.2-2.2 2.2z"/><path d="m41.1 7.4h-.9c-1 0-1.8.8-1.8 1.8v29h4.6v-29c0-1-.8-1.8-1.9-1.8z"/><path d="m43 38.3-2.3 5.3-2.3-5.3z"/><path d="m38.4 12.7h7.9v6.3"/><path d="m7.8 17 1.4 1.4 4.2-4.2"/><path d="m17.7 15h11.3"/><path d="m17.7 18.2h5.7"/><path d="m7.8 26.3 1.4 1.4 4.2-4.1"/><path d="m17.7 24.4h11.3"/><path d="m17.7 27.5h5.7"/><path d="m7.8 35.7 1.4 1.4 4.2-4.2"/><path d="m17.7 33.7h11.3"/><path d="m17.7 36.8h5.7"/></g></svg>