<svg version="1.1" id="Capa_1" xmlns="http://www.w3.org/2000/svg" xmlns:xlink="http://www.w3.org/1999/xlink" x="0px" y="0px" viewBox="0 0 512 512" style="enable-background:new 0 0 512 512;" xml:space="preserve">
  <defs>
    <linearGradient id="grad1" x1="0%" y1="0%" x2="100%" y2="100%">
      <stop offset="0%" style="stop-color:#3E699C;stop-opacity:1" />
      <stop offset="100%" style="stop-color:#B33030;stop-opacity:1" />
    </linearGradient>
  </defs>
  <g>
    <g>
      <line style="fill:none;stroke:url(#grad1);stroke-width:15;stroke-linecap:round;stroke-linejoin:round;stroke-miterlimit:10;" x1="412.187" y1="397.031" x2="387.785" y2="338.119"/>
      <path style="fill:none;stroke:url(#grad1);stroke-width:15;stroke-linecap:round;stroke-linejoin:round;stroke-miterlimit:10;" d="M256.376,438.971l19.47,47.006c9.017,21.769,38.46,25.123,52.141,5.938l0,0c14.285-20.031,38.743-30.162,63.009-26.099h0c23.24,3.891,41.688-19.299,32.671-41.069"/>
      <path style="fill:none;stroke:url(#grad1);stroke-width:15;stroke-linecap:round;stroke-linejoin:round;stroke-miterlimit:10;" d="M269.139,406.341l-32.986,79.636c-9.017,21.769-38.46,25.123-52.141,5.938l0,0c-14.285-20.031-38.743-30.162-63.008-26.099h0c-23.24,3.891-41.688-19.299-32.671-41.069l35.882-86.628"/>
      <path style="fill:none;stroke:url(#grad1);stroke-width:15;stroke-linecap:round;stroke-linejoin:round;stroke-miterlimit:10;" d="M456,207.5c0-11.559-4.414-22.084-11.648-29.985c-9.423-10.293-13.197-24.699-10.217-38.333c2.279-10.429,0.83-21.706-4.93-31.682c-5.767-9.989-14.826-16.889-25.015-20.124c-13.312-4.226-23.84-14.754-28.066-28.066C372.889,49.121,365.989,40.062,356,34.295c-9.975-5.759-21.252-7.209-31.682-4.93c-13.634,2.98-28.04-0.794-38.333-10.217C278.084,11.914,267.559,7.5,256,7.5s-22.084,4.414-29.985,11.648c-10.293,9.423-24.699,13.197-38.333,10.217c-10.429-2.279-21.706-0.83-31.682,4.93c-9.989,5.767-16.889,14.826-20.124,25.015c-4.226,13.312-14.754,23.84-28.066,28.066C97.621,90.611,88.562,97.511,82.795,107.5c-5.759,9.975-7.209,21.252-4.93,31.681c2.98,13.634-0.794,28.04-10.217,38.333C60.414,185.416,56,195.941,56,207.5s4.414,22.084,11.648,29.985c9.423,10.293,13.197,24.7,10.217,38.333c-2.279,10.429-0.83,21.706,4.93,31.681c5.767,9.989,14.826,16.889,25.015,20.124c13.312,4.226,23.84,14.754,28.066,28.066c3.235,10.189,10.134,19.248,20.124,25.015c9.975,5.759,21.252,7.209,31.682,4.93c13.634-2.98,28.04,0.794,38.333,10.217c7.902,7.234,18.426,11.648,29.985,11.648s22.084-4.414,29.985-11.648c10.293-9.423,24.699-13.197,38.333-10.217c10.429,2.279,21.706,0.83,31.682-4.93c9.989-5.767,16.889-14.826,20.124-25.015c4.226-13.312,14.754-23.84,28.066-28.066c10.189-3.235,19.248-10.134,25.015-20.124c5.759-9.975,7.209-21.252,4.93-31.682c-2.98-13.634,0.794-28.04,10.217-38.333C451.586,229.584,456,219.059,456,207.5z"/>
      <path style="fill:none;stroke:url(#grad1);stroke-width:15;stroke-linecap:round;stroke-linejoin:round;stroke-miterlimit:10;" d="M172.963,103.25C195.76,85.055,224.632,74.167,256,74.167c73.521,0,133.333,59.813,133.333,133.333S329.521,340.833,256,340.833c-73.52,0-133.333-59.813-133.333-133.333c0-31.368,10.888-60.24,29.083-83.037"/>
      <path style="fill:none;stroke:url(#grad1);stroke-width:15;stroke-linecap:round;stroke-linejoin:round;stroke-miterlimit:10;" d="M228.956,261.381c4.89,4.89,11.647,7.915,19.109,7.915l60.911,0c14.925,0,27.024-12.099,27.024-27.024v-48.137c0-14.925-12.099-27.024-27.024-27.024l-26.658,0l14.776-21.321c3.467-5.002,3.268-11.833-0.817-16.344c-4.86-5.366-13.035-5.692-18.296-0.944c0,0-31.999,28.876-48.021,43.333"/>
      <path style="fill:none;stroke:url(#grad1);stroke-width:15;stroke-linecap:round;stroke-linejoin:round;stroke-miterlimit:10;" d="M192.014,269.297h22.02c8.845,0,16.014-7.17,16.014-16.014v-76.069c0-8.845-7.17-16.014-16.014-16.014h-22.02c-8.845,0-16.014,7.17-16.014,16.014v76.069C176,262.127,183.17,269.297,192.014,269.297z"/>
    </g>
  </g>
</svg>
