<svg clip-rule="evenodd" fill-rule="evenodd" stroke-linejoin="round" stroke-miterlimit="2" viewBox="0 0 512 512" xmlns="http://www.w3.org/2000/svg" xmlns:serif="http://www.serif.com/"><g transform="translate(-1198.48 -1288.12)"><g id="Artboard1" transform="matrix(.146 0 0 .103 1198.48 1288.12)"><path d="m0 0h3507.87v4960.63h-3507.87z" fill="none"/><g transform="matrix(6.851 0 0 9.689 -8211.15 -12480.2)"><path d="m1514.47 1437.21c-2.33-7.39-3.69-14.12-3.69-19.62 0-30.51 24.76-55.28 55.27-55.28s55.28 24.77 55.28 55.28c0 3.83-.67 8.26-1.85 13.09 4.43-1.28 8.85-2.69 13.23-4.24l44.87-15.82c1.75-.62 3.69-.35 5.2.72 1.52 1.07 2.41 2.81 2.41 4.67v228.09c0 2.42-1.52 4.58-3.81 5.39 0 0-19.81 6.98-44.87 15.82-66.45 23.43-139.66 18.1-202.01-14.71 0 0 0 0-.01 0-47.64-25.07-103.27-30.24-154.72-14.39-25.98 8.01-48.03 14.8-48.03 14.8-1.16.36-2.41.34-3.56-.06l-.06-.02c-2.3-.8-3.84-2.97-3.84-5.4v-228.09c0-1.85.9-3.59 2.41-4.66.68-.48 1.44-.8 2.24-.95l47.47-14.63c54.34-16.75 113.1-11.28 163.42 15.19 23.6 12.43 48.84 20.72 74.65 24.82zm4.44 12.2c-29.2-3.89-57.8-12.89-84.41-26.9 0 0 0 0-.01 0-47.64-25.07-103.27-30.24-154.72-14.39l-44.05 13.58v216.12l40.68-12.53c54.34-16.75 113.1-11.28 163.42 15.19v.01c59.54 31.32 129.44 36.41 192.89 14.04l41.05-14.48v-215.96l-37.25 13.13c-6.96 2.45-13.99 4.59-21.08 6.42-1.42 3.86-3.05 7.84-4.84 11.88-.71 1.6-1.45 3.22-2.2 4.84 8.19-1.96 16.3-4.34 24.32-7.17l19.9-7.02c1.75-.61 3.69-.34 5.2.73s2.41 2.81 2.41 4.66v174.09c0 2.42-1.53 4.58-3.81 5.39 0 0-19.9 7.02-19.9 7.02-66.45 23.43-139.66 18.1-202.01-14.71 0 0 0 0-.01 0-47.64-25.07-103.27-30.25-154.72-14.4l-23.12 7.13c-1.73.53-3.61.21-5.07-.87-1.46-1.07-2.32-2.78-2.32-4.6v-174.08c0-2.51 1.63-4.72 4.03-5.46 0 0 23.11-7.12 23.11-7.12 54.34-16.75 113.1-11.29 163.42 15.19 27.16 14.3 56.48 23.13 86.36 26.38-1.63-3.35-3.2-6.69-4.67-10-.91-2.06-1.78-4.1-2.6-6.11zm13.45 28.18c-33.85-2.69-67.17-12.18-97.86-28.33 0 0 0 0-.01 0-47.64-25.07-103.27-30.24-154.72-14.39l-19.08 5.88v162.12l15.71-4.84c54.34-16.75 113.1-11.28 163.42 15.2 59.54 31.33 129.44 36.42 192.89 14.04l16.08-5.67v-161.96l-12.28 4.33c-11.36 4.01-22.93 7.17-34.6 9.51-7.63 14.71-16.05 28.79-22.22 38.66-2.94 4.71-8.09 7.56-13.64 7.56-5.54 0-10.7-2.85-13.64-7.56h-.01c-5.58-8.95-13.02-21.35-20.04-34.55zm-98.02 98.61-7.96-8c-2.23-2.23-2.22-5.86.01-8.08 2.24-2.23 5.86-2.22 8.09.01l7.96 8 8-7.97c2.24-2.22 5.86-2.21 8.09.02 2.23 2.24 2.22 5.86-.02 8.09l-8 7.96 7.97 8c2.23 2.24 2.22 5.86-.02 8.09-2.23 2.23-5.85 2.22-8.08-.02l-7.97-8-8 7.97c-2.23 2.23-5.86 2.22-8.08-.02-2.23-2.23-2.22-5.85.01-8.08zm173.19-21.9-7.97-8c-2.23-2.23-2.22-5.86.02-8.08 2.23-2.23 5.85-2.22 8.08.02l7.97 8 8-7.97c2.23-2.23 5.86-2.22 8.08.01 2.23 2.24 2.22 5.86-.01 8.09l-8 7.97 7.96 8c2.23 2.23 2.22 5.85-.01 8.08-2.24 2.23-5.86 2.22-8.08-.02l-7.97-8-8 7.97c-2.24 2.23-5.86 2.22-8.09-.01-2.22-2.24-2.22-5.86.02-8.09zm-196.31-4.05.58-.29c1.82-.92 4.03-.18 4.94 1.63s.18 4.02-1.63 4.93c-1.39.7-2.15 1.08-2.15 1.08-.99.5-2.15.53-3.16.07 0 0-1.34-.6-3.68-1.65-1.85-.84-2.67-3.02-1.84-4.87.84-1.85 3.02-2.67 4.86-1.84zm183.17-3.49c-1.82-.71-3.82-1.5-5.99-2.35-1.89-.74-4.02.19-4.77 2.08-.74 1.88.19 4.02 2.08 4.76 2.17.85 4.17 1.64 5.99 2.35 1.89.75 4.02-.18 4.76-2.07.75-1.89-.18-4.02-2.07-4.77zm-165.02-5.64c-2.02 1.02-3.95 1.99-5.75 2.89-1.81.91-2.54 3.12-1.63 4.94.91 1.81 3.13 2.54 4.94 1.63 1.8-.91 3.72-1.88 5.74-2.89 1.82-.91 2.55-3.12 1.64-4.94-.91-1.81-3.13-2.54-4.94-1.63zm-32.29 2.76c-1.85-.84-3.82-1.73-5.86-2.65-1.85-.83-4.03-.01-4.87 1.84-.83 1.85 0 4.03 1.84 4.86 2.05.93 4.02 1.81 5.87 2.65 1.85.83 4.03.01 4.86-1.84.84-1.85.01-4.03-1.84-4.86zm179.01-4.31c-1.95-.77-3.95-1.55-5.99-2.36-1.89-.74-4.02.19-4.77 2.08-.74 1.89.19 4.02 2.08 4.77 2.04.8 4.04 1.58 5.99 2.35 1.88.74 4.02-.19 4.76-2.08s-.19-4.02-2.07-4.76zm-196.94-3.77c-1.94-.88-3.9-1.76-5.86-2.65-1.85-.83-4.03-.01-4.87 1.84-.83 1.85 0 4.03 1.85 4.86 1.96.89 3.92 1.77 5.86 2.65 1.85.83 4.03.01 4.86-1.84.84-1.85.01-4.03-1.84-4.86zm67.79-3.52c-1.93.98-3.85 1.94-5.75 2.89-1.81.92-2.54 3.13-1.63 4.94s3.12 2.54 4.94 1.63c1.89-.95 3.81-1.91 5.74-2.89 1.82-.91 2.55-3.12 1.64-4.93-.92-1.82-3.13-2.55-4.94-1.64zm110.84.09c-1.98-.78-3.98-1.57-5.98-2.35-1.89-.74-4.03.18-4.77 2.07s.19 4.03 2.08 4.77c2 .79 4 1.57 5.98 2.35 1.89.74 4.03-.18 4.77-2.07s-.19-4.03-2.08-4.77zm-196.56-4.66c-2-.9-3.96-1.78-5.86-2.64-1.85-.83-4.03-.01-4.86 1.84-.84 1.85-.01 4.03 1.84 4.86 1.9.86 3.86 1.74 5.86 2.65 1.85.83 4.03.01 4.86-1.84.84-1.85.01-4.03-1.84-4.87zm103.29-4.26c-1.89.94-3.81 1.91-5.75 2.89-1.81.91-2.54 3.12-1.63 4.93.91 1.82 3.12 2.55 4.94 1.64 1.94-.98 3.86-1.95 5.74-2.89 1.81-.92 2.55-3.13 1.63-4.94-.91-1.81-3.12-2.54-4.93-1.63zm74.97 1.72c-2.02-.79-4.02-1.58-5.98-2.35-1.89-.74-4.03.19-4.77 2.08s.19 4.02 2.08 4.76c1.96.78 3.96 1.56 5.98 2.36 1.89.74 4.03-.19 4.77-2.08s-.19-4.02-2.08-4.77zm-241.95-13.29-7.97-8c-2.22-2.24-2.22-5.86.02-8.09 2.23-2.22 5.85-2.21 8.08.02l7.97 8 8-7.97c2.24-2.22 5.86-2.22 8.08.02 2.23 2.23 2.22 5.86-.01 8.08l-8 7.97 7.97 8c2.22 2.24 2.21 5.86-.02 8.09-2.24 2.22-5.86 2.22-8.08-.02l-7.97-8-8 7.97c-2.24 2.22-5.86 2.22-8.09-.02-2.22-2.23-2.22-5.86.02-8.08zm45.76 7.75c-2.23-1.01-4.21-1.9-5.86-2.64-1.85-.83-4.03-.01-4.86 1.84-.84 1.85-.01 4.03 1.84 4.86 1.64.75 3.62 1.64 5.86 2.65 1.85.83 4.03.01 4.86-1.84.84-1.85.01-4.03-1.84-4.87zm177.89-1.65c-2.09-.82-4.09-1.61-5.99-2.36-1.88-.74-4.02.19-4.76 2.08s.19 4.03 2.07 4.77c1.9.74 3.9 1.53 5.99 2.35 1.89.74 4.02-.19 4.77-2.07.74-1.89-.19-4.03-2.08-4.77zm-39.1-3.37c-1.78.9-3.7 1.86-5.75 2.89-1.81.91-2.54 3.12-1.63 4.94.91 1.81 3.12 2.54 4.93 1.63 2.05-1.03 3.98-2 5.75-2.89 1.81-.91 2.54-3.12 1.63-4.94-.91-1.81-3.12-2.54-4.93-1.63zm12.91.97c-1.13-.18-2.17-.88-2.72-1.98-.91-1.81-.18-4.02 1.63-4.93.07-.04.11-.06.11-.06.93-.47 2.02-.52 3-.14 0 0 2.16.85 5.87 2.31 1.89.75 2.82 2.88 2.07 4.77-.74 1.89-2.87 2.82-4.76 2.07zm67.11-9.5c.85 1.36 2.35 2.19 3.95 2.19 1.61 0 3.1-.83 3.95-2.18 8.44-13.53 21.25-35.15 30.14-55.2 5.62-12.68 9.76-24.66 9.76-33.3 0-24.2-19.65-43.85-43.85-43.85s-43.84 19.65-43.84 43.85c0 8.64 4.13 20.62 9.76 33.3 8.89 20.05 21.69 41.66 30.13 55.19zm-109.65-15.76-7.97-8c-2.22-2.24-2.21-5.86.02-8.09 2.24-2.22 5.86-2.22 8.09.02l7.96 8 8-7.97c2.24-2.23 5.86-2.22 8.09.02 2.22 2.23 2.22 5.85-.02 8.08l-8 7.97 7.97 8c2.23 2.23 2.22 5.86-.02 8.08-2.23 2.23-5.86 2.22-8.08-.01l-7.97-8-8 7.96c-2.23 2.23-5.86 2.22-8.08-.01-2.23-2.24-2.22-5.86.01-8.09zm113.6-99.88c-15.34 0-27.79 12.46-27.79 27.8s12.45 27.79 27.79 27.79 27.79-12.45 27.79-27.79-12.45-27.8-27.79-27.8zm0 11.44c9.03 0 16.36 7.33 16.36 16.36s-7.33 16.36-16.36 16.36-16.36-7.33-16.36-16.36 7.33-16.36 16.36-16.36z" fill="#f00"/></g></g></g></svg>