<?xml version="1.0"?>
<svg xmlns="http://www.w3.org/2000/svg" id="Layer_1" data-name="Layer 1" fill="#f00" viewBox="0 0 64 64"><path d="M60.06,16.07V9.14a4.6,4.6,0,0,0-4.6-4.6H52.52V2a2,2,0,0,0-2-2H47.7a2,2,0,0,0-2,2V4.54H39.8V2a2,2,0,0,0-2-2H35a2,2,0,0,0-2,2V4.54H27.09V2a2,2,0,0,0-2-2H22.27a2,2,0,0,0-2,2V4.54H14.37V2a2,2,0,0,0-2-2H9.55a2,2,0,0,0-2,2V4.54H4.61A4.61,4.61,0,0,0,0,9.14V48.19A4.62,4.62,0,0,0,4.61,52.8H30.93A17.05,17.05,0,1,0,60.06,36.05ZM47.7,1.94,50.58,2V8.8a.07.07,0,0,1-.07.07L47.63,8.8ZM35,1.94,37.86,2V8.8s0,.07-.06.07L34.91,8.8Zm-12.71,0L25.15,2V8.8a.07.07,0,0,1-.07.07L22.2,8.8Zm-12.72,0L12.43,2v3.5h0V8.8s0,.07-.06.07L9.48,8.8ZM1.94,9.14A2.67,2.67,0,0,1,4.61,6.48H7.55V8.8a2,2,0,0,0,2,2h2.82a2,2,0,0,0,2-2V6.48h5.89V8.8a2,2,0,0,0,2,2h2.81a2,2,0,0,0,2-2V6.48H33V8.8a2,2,0,0,0,2,2H37.8a2,2,0,0,0,2-2V6.48h5.89V8.8a2,2,0,0,0,2,2h2.81a2,2,0,0,0,2-2V6.48h2.94a2.66,2.66,0,0,1,2.66,2.66v6H1.94Zm28.4,41.72H4.61a2.68,2.68,0,0,1-2.67-2.67V17H58.12v17A17,17,0,0,0,30.34,50.86Zm31.72-3.93A15.13,15.13,0,1,1,46.93,31.81,15.14,15.14,0,0,1,62.06,46.93Z"/><path d="M27.05,19.71H20.63a1,1,0,0,0-1,1v6a1,1,0,0,0,1,1h6.42a1,1,0,0,0,1-1v-6A1,1,0,0,0,27.05,19.71Zm-1,6H21.6v-4h4.48Z"/><path d="M40.41,26.66v-6a1,1,0,0,0-1-1H33a1,1,0,0,0-1,1v6a1,1,0,0,0,1,1h6.42A1,1,0,0,0,40.41,26.66Zm-1.94-1H34v-4h4.48Z"/><path d="M45.41,27.63h6.42a1,1,0,0,0,1-1v-6a1,1,0,0,0-1-1H45.41a1,1,0,0,0-1,1v6A1,1,0,0,0,45.41,27.63Zm1-6h4.48v4H46.38Z"/><path d="M14.66,30H8.24a1,1,0,0,0-1,1v6a1,1,0,0,0,1,1h6.42a1,1,0,0,0,1-1V31A1,1,0,0,0,14.66,30Zm-1,6H9.21v-4h4.48Z"/><path d="M27.05,30H20.63a1,1,0,0,0-1,1v6a1,1,0,0,0,1,1h6.42a1,1,0,0,0,1-1V31A1,1,0,0,0,27.05,30Zm-1,6H21.6v-4h4.48Z"/><path d="M14.66,40.27H8.24a1,1,0,0,0-1,1v6a1,1,0,0,0,1,1h6.42a1,1,0,0,0,1-1v-6A1,1,0,0,0,14.66,40.27Zm-1,6H9.21v-4h4.48Z"/><path d="M27.05,40.27H20.63a1,1,0,0,0-1,1v6a1,1,0,0,0,1,1h6.42a1,1,0,0,0,1-1v-6A1,1,0,0,0,27.05,40.27Zm-1,6H21.6v-4h4.48Z"/><path d="M56.44,51,47.9,46.36V36.25a1,1,0,1,0-1.93,0V46.93a1,1,0,0,0,.5.86l9,4.91a1,1,0,0,0,1.32-.39A1,1,0,0,0,56.44,51Z"/></svg>
