<svg id="Layer_1" viewBox="0 0 128 128" xmlns="http://www.w3.org/2000/svg" fill="#f00" data-name="Layer 1"><path d="m63.51953 34.00031h.96094a13.24441 13.24441 0 0 0 13.51922-13.25013v-7.50006a13.24441 13.24441 0 0 0 -13.51922-13.25012h-.96094a13.24441 13.24441 0 0 0 -13.51922 13.25012v7.50006a13.24441 13.24441 0 0 0 13.51922 13.25013zm-4.79089-13.54407a1.99933 1.99933 0 0 1 2.8056.26074 3.82768 3.82768 0 0 0 2.42376 1.28223 3.55929 3.55929 0 0 0 2.59467-1.37988 2.00034 2.00034 0 1 1 2.89447 2.76178 7.45331 7.45331 0 0 1 -5.42078 2.61914c-.07812 0-.15625-.001-.23535-.00391a7.79455 7.79455 0 0 1 -5.33484-2.72461 2.00039 2.00039 0 0 1 .27247-2.81549z"/><path d="m29.06421 109.97083-15.12665 8.03229c-.03613-.0127-.0498-.0498-.04-.1084l2.88373-16.9425a2.003 2.003 0 0 0 -.57025-1.76276l-12.18046-11.96302.00293-.15723 16.86877-2.46973a1.99809 1.99809 0 0 0 1.5058-1.09863l7.58679-15.50507c.001 0 .00781.00684.01953.03027l5.01709 10.244 4.15454-.61163-5.57989-11.39212a4.0015 4.0015 0 0 0 -7.21082 0l-7.116 14.52844-15.82589 2.31744a4.0185 4.0185 0 0 0 -3.246 2.75488 4.08925 4.08925 0 0 0 1.02048 4.21294l11.43433 11.23059-2.70796 15.91127a4.07559 4.07559 0 0 0 1.62885 4.01666 3.96158 3.96158 0 0 0 4.20306.29395l14.21454-7.53033 7.4812 3.96271.70337-4.15424-7.248-3.83978a1.99932 1.99932 0 0 0 -1.87309 0z"/><path d="m127.7926 85.86707a4.0185 4.0185 0 0 0 -3.246-2.75488l-15.8259-2.31745-7.116-14.52844a4.0015 4.0015 0 0 0 -7.21082 0l-5.58 11.39233 4.15228.61133 5.02722-10.27417c.001 0 .00781.00684.01953.03027l7.579 15.47479a1.99809 1.99809 0 0 0 1.5058 1.09863l16.86975 2.46582.002.16113-12.18046 11.96302a2.003 2.003 0 0 0 -.57025 1.76276l2.88373 16.94348c.00977.05762-.00391.09473-.01562.10156l-15.15106-8.02643a1.99932 1.99932 0 0 0 -1.873 0l-7.24658 3.848.70209 4.14642 7.481-3.96313 14.21454 7.52936a3.96231 3.96231 0 0 0 4.20306-.293 4.07478 4.07478 0 0 0 1.62885-4.01569l-2.70795-15.91223 11.43428-11.23055a4.08925 4.08925 0 0 0 1.02051-4.21293z"/><path d="m84.04938 103.71881 13.6159-13.44836a4.48841 4.48841 0 0 0 1.10645-4.61627 4.38464 4.38464 0 0 0 -3.53412-3.00684l-18.83649-2.7735-8.47052-17.39178a4.35376 4.35376 0 0 0 -7.86121 0l-8.47051 17.39178-18.83746 2.7735a4.38468 4.38468 0 0 0 -3.53314 3.00684 4.48841 4.48841 0 0 0 1.10645 4.61627l13.61591 13.44836-3.22554 19.0539a4.46686 4.46686 0 0 0 1.788 4.4024 4.30061 4.30061 0 0 0 4.57025.31152l16.91665-9.01178 16.9176 9.01276a4.30564 4.30564 0 0 0 4.56927-.3125 4.46686 4.46686 0 0 0 1.788-4.4024z"/><path d="m75.738 38.73474a1.99886 1.99886 0 0 0 2.787.48242l14.61786-10.3028a5.00929 5.00929 0 0 1 4.09167-.76569 4.95358 4.95358 0 0 1 3.23041 2.545 4.82913 4.82913 0 0 1 -1.54868 6.19633l-16.816 11.83411a2.00128 2.00128 0 0 0 -.84863 1.63574v26.18538l3.99994.58887v-25.73615l15.96643-11.23645a8.88033 8.88033 0 0 0 -3.02631-15.89661 9.008 9.008 0 0 0 -7.35236 1.37988l-14.61887 10.30286a2.00026 2.00026 0 0 0 -.48246 2.78711z"/><path d="m26.78693 40.17322 15.95959 11.22473v25.73633l3.99994-.58887v-26.18555a1.99954 1.99954 0 0 0 -.84961-1.63574l-16.8092-11.82239a4.85829 4.85829 0 0 1 -1.456-6.38483 4.90777 4.90777 0 0 1 3.24017-2.39264 5.02948 5.02948 0 0 1 3.99792.793l14.60326 10.2999a2.00007 2.00007 0 0 0 2.30463-3.26953l-14.60325-10.29992a9.01244 9.01244 0 0 0 -13.02313 2.8985 8.84352 8.84352 0 0 0 2.63568 11.62701z"/></svg>