<svg id="Layer_1" enable-background="new 0 0 500 500" fill="#f00" viewBox="0 0 500 500" xmlns="http://www.w3.org/2000/svg"><path clip-rule="evenodd" d="m227.644 190.79c-.346-3.756 2.425-7.066 6.175-7.404 3.756-.335 7.068 2.431 7.402 6.177.726 8.013 7.351 14.05 15.399 14.05 8.053 0 14.678-6.037 15.398-14.05.346-3.747 3.664-6.522 7.408-6.177 3.75.338 6.521 3.648 6.175 7.404-1.354 15.09-13.814 26.467-28.982 26.467-15.16 0-27.621-11.377-28.975-26.467zm174.699-78.969v-41.128l48.476 20.563zm22.086 88.874v16.888c0 4.174-3.393 7.568-7.569 7.568h-38.251c-4.182 0-7.575-3.394-7.575-7.568v-23.355c0-4.174 3.393-7.576 7.575-7.576h31.787c7.737-.001 14.033 6.293 14.033 14.043zm-22.846 137.969c-7.449 5.212-15.9 6.33-24.437 3.22l-42.572-15.479c-9.058-3.289-18.63 3.406-18.63 13.04v93.114c0 .119-.115.236-.236.236h-118.169c-.121 0-.236-.117-.236-.236v-93.114c0-9.635-9.573-16.328-18.63-13.04l-42.571 15.479c-8.538 3.11-16.988 1.991-24.437-3.22-7.437-5.212-11.377-12.78-11.377-21.863v-78.008h35.745l2.656 31.841c.836 10.019 11.651 15.849 20.474 11.034l31.81-17.354 10.133 18.999c4.528 8.504 12.431 14.161 21.291 16.026l16.199 49.675h-6.878c-9.476 0-17.19 7.714-17.19 17.19v32.167c0 9.479 7.714 17.199 17.19 17.199h49.807c9.482 0 17.196-7.72 17.196-17.199v-32.167c0-9.476-7.714-17.19-17.196-17.19h-6.872l16.193-49.675c8.866-1.865 16.758-7.522 21.297-16.026l10.133-18.999 31.805 17.354c8.826 4.815 19.644-1.013 20.479-11.034l2.656-31.886c.467.027.922.045 1.394.045h34.351v78.007c-.001 9.084-3.942 16.652-11.378 21.864zm-310.116-137.969c0-7.75 6.302-14.044 14.039-14.044h31.788c4.182 0 7.575 3.402 7.575 7.576v23.355c0 4.174-3.393 7.568-7.575 7.568h-38.251c-4.177 0-7.575-3.394-7.575-7.568v-16.887zm-43.377-38.243h-9.303c-.115 0-.236-.119-.236-.236v-78.49c0-.119.121-.236.236-.236h9.303l34.144 13.279v52.404zm49.403-63.53h30.341c8.895 0 16.136 7.241 16.136 16.134v15.826c0 8.896-7.241 16.134-16.136 16.134h-31.96v-48.094zm11.619 74.088v-12.352h12.812v12.352zm101.659-17.035v28.122c0 25.284 20.571 45.856 45.849 45.856 25.284 0 45.855-20.572 45.855-45.856v-28.122c-29.748-3.661-61.952-3.662-91.704 0zm-26.326 9.895v-5.502c4.102-.882 8.336-1.692 12.685-2.419v19.325h-1.285c-6.29.001-11.4-5.119-11.4-11.404zm5.882-52.832c3.808-8.468 8.232-15.387 13.169-20.572 4.729-4.975 20.018-13.016 34.068-17.935 20.946-7.323 52.924 2.527 68.512 15.953 5.455 4.682 8.578 11.431 10.432 22.554.346 2.057.565 4.138.657 6.231-40.248-6.572-87.575-6.262-127.311 1.082-.005-2.292.156-4.738.473-7.313zm145.555 34.915c-47.753-11.169-110.761-11.17-158.517 0 1.331-7.084 6.775-12.651 14.143-14.033 40.489-7.603 89.738-7.598 130.22 0 7.379 1.382 12.823 6.949 14.154 14.033zm-18.48 29.322h-1.285v-19.325c4.349.727 8.583 1.537 12.685 2.419v5.502c0 6.284-5.116 11.404-11.4 11.404zm-38.718 108.165c8.428 2.811 17.242-.7 21.418-8.549l9.119-17.089-14.978-2.502-24.996 24.993zm-34.685-3.146-24.996-24.993-14.978 2.502 9.107 17.089c4.188 7.84 12.99 11.359 21.43 8.549zm12.622-38.7c-10.3 0-19.99-2.637-28.452-7.266v10.842l28.452 28.457 28.458-28.457v-10.842c-8.463 4.629-18.153 7.266-28.458 7.266zm-3.676 105.418h7.357l16.297-49.985c-3.327-.805-19.579-6.558-19.978-6.558-.298 0-16.614 5.693-19.973 6.558zm28.579 13.644h-49.807c-1.918 0-3.548 1.628-3.548 3.547v32.167c0 1.929 1.63 3.558 3.548 3.558h49.807c1.924 0 3.554-1.629 3.554-3.558v-32.167c0-1.92-1.63-3.547-3.554-3.547zm189.423-277.683-72.758-30.869c-4.476-1.896-9.488 1.425-9.488 6.285v112.621h-10.093c-11.706 0-21.222 9.512-21.222 21.218v23.355c0 6.049 2.552 11.506 6.625 15.381l-3.053 36.652-.219.126-34.155-18.616c-4.131-2.257-8.036-3.603-12.685-4.374l-15.179-2.529v-18.126c9.229-9.249 15.421-21.52 16.988-35.179h1.694c13.814 0 25.047-11.231 25.047-25.047v-2.282c3.961.32 7.385-2.768 7.385-6.784v-5.457c0-12.971-7.535-24.04-18.982-28.86.052-3.929-.236-7.849-.881-11.695-2.402-14.343-7.022-23.801-14.989-30.651-18.809-16.179-56.207-27.473-81.917-18.488-13.779 4.82-31.995 13.569-39.455 21.409-6.193 6.512-11.631 15.043-16.159 25.365-.259.574-.432 1.182-.513 1.8-.784 5.594-.939 10.814-.484 15.554-8.036 5.693-13.036 14.996-13.036 25.565v5.457c0 3.989 3.44 7.158 7.379 6.784v2.282c0 13.816 11.233 25.047 25.047 25.047h1.682c1.579 13.659 7.771 25.93 17 35.179v18.126l-15.185 2.529c-4.643.772-8.549 2.118-12.679 4.374l-34.144 18.616-.219-.108-2.903-34.643c5.501-3.839 9.113-10.213 9.113-17.408v-23.355c0-11.706-9.511-21.218-21.217-21.218h-1.728v-13.369c12.679-3.42 22.046-15.006 22.046-28.758v-15.826c0-16.416-13.359-29.776-29.777-29.776h-37.495l-38.498-14.97c-.783-.3-1.619-.463-2.466-.463h-10.588c-7.644 0-13.877 6.231-13.877 13.88v78.489c0 7.647 6.233 13.878 13.877 13.878h10.588c.847 0 1.682-.156 2.466-.464l38.499-14.971h5.127v14.244c-10.312 4.028-17.645 14.068-17.645 25.792v16.888c0 7.068 3.485 13.342 8.826 17.199v82.018c0 13.542 6.1 25.275 17.201 33.04 11.084 7.769 24.195 9.497 36.92 4.866l42.681-15.516.213.254v93.114c0 7.649 6.222 13.88 13.877 13.88h118.169c7.656 0 13.878-6.231 13.878-13.88l.011-93.222.19-.146 42.692 15.516c12.725 4.631 25.837 2.903 36.926-4.866 11.084-7.765 17.196-19.498 17.196-33.04v-80.382c6.803-3.538 11.47-10.648 11.47-18.835v-16.888c0-15.27-12.414-27.685-27.674-27.685h-8.053v-46.376l68.604-29.102c5.528-2.342 5.522-10.209-.001-12.559z" fill-rule="evenodd"/></svg>