<?xml version="1.0" encoding="UTF-8" standalone="no"?>
<!-- Created with Inkscape (http://www.inkscape.org/) -->

<svg
   version="1.1"
   id="svg4548"
   xml:space="preserve"
   width="682.66669"
   height="682.66669"
   viewBox="0 0 682.66669 682.66669"
   xmlns="http://www.w3.org/2000/svg"
   xmlns:svg="http://www.w3.org/2000/svg"><defs
     id="defs4552"><clipPath
       clipPathUnits="userSpaceOnUse"
       id="clipPath4562"><path
         d="M 0,512 H 512 V 0 H 0 Z"
         id="path4560" /></clipPath></defs><g
     id="g4554"
     transform="matrix(1.3333333,0,0,-1.3333333,0,682.66667)"><g
       id="g4556"><g
         id="g4558"
         clip-path="url(#clipPath4562)"><g
           id="g4564"
           transform="translate(332,465.7129)"><path
             d="m 0,0 c 67.313,-30.195 114.369,-99.276 114.369,-179.67 0,-30.021 -6.562,-58.459 -18.287,-83.888 -9.503,-20.61 -27.689,-47.243 -51.082,-74.155"
             style="fill:none;stroke:#f00;stroke-width:15;stroke-linecap:round;stroke-linejoin:round;stroke-miterlimit:10;stroke-dasharray:none;stroke-opacity:1"
             id="path4566" /></g><g
           id="g4568"
           transform="translate(355,104)"><path
             d="m 0,0 c -44.784,-47.565 -99,-96.5 -99,-96.5 0,0 -141.544,128.427 -172.082,194.655 -11.725,25.431 -18.287,53.868 -18.287,83.888 0,108.197 85.231,195.904 190.369,195.904 7.785,0 15.46,-0.48 23,-1.415"
             style="fill:none;stroke:#f00;stroke-width:15;stroke-linecap:round;stroke-linejoin:round;stroke-miterlimit:10;stroke-dasharray:none;stroke-opacity:1"
             id="path4570" /></g><g
           id="g4572"
           transform="translate(195.9995,409.2178)"><path
             d="M 0,0 C 16.643,8.474 35.225,13.533 54.878,14.285"
             style="fill:none;stroke:#f00;stroke-width:15;stroke-linecap:round;stroke-linejoin:round;stroke-miterlimit:10;stroke-dasharray:none;stroke-opacity:1"
             id="path4574" /></g><g
           id="g4576"
           transform="translate(358.8765,374.8857)"><path
             d="m 0,0 c 20.237,-24.303 32.455,-55.867 32.455,-90.36 0,-76.813 -60.588,-139.078 -135.331,-139.078 -74.744,0 -135.332,62.265 -135.332,139.078 0,41.792 17.937,79.277 46.332,104.77"
             style="fill:none;stroke:#f00;stroke-width:15;stroke-linecap:round;stroke-linejoin:round;stroke-miterlimit:10;stroke-dasharray:none;stroke-opacity:1"
             id="path4578" /></g><g
           id="g4580"
           transform="translate(291.2852,394)"><path
             d="M 0,0 H 29.458"
             style="fill:none;stroke:#f00;stroke-width:15;stroke-linecap:round;stroke-linejoin:round;stroke-miterlimit:10;stroke-dasharray:none;stroke-opacity:1"
             id="path4582" /></g><g
           id="g4584"
           transform="translate(291.2852,335.667)"><path
             d="M 0,0 H 29.458"
             style="fill:none;stroke:#f00;stroke-width:15;stroke-linecap:round;stroke-linejoin:round;stroke-miterlimit:10;stroke-dasharray:none;stroke-opacity:1"
             id="path4586" /></g><g
           id="g4588"
           transform="translate(291.2852,277.333)"><path
             d="M 0,0 H 29.458"
             style="fill:none;stroke:#f00;stroke-width:15;stroke-linecap:round;stroke-linejoin:round;stroke-miterlimit:10;stroke-dasharray:none;stroke-opacity:1"
             id="path4590" /></g><g
           id="g4592"
           transform="translate(291.2852,219)"><path
             d="M 0,0 H 29.458"
             style="fill:none;stroke:#f00;stroke-width:15;stroke-linecap:round;stroke-linejoin:round;stroke-miterlimit:10;stroke-dasharray:none;stroke-opacity:1"
             id="path4594" /></g><g
           id="g4596"
           transform="translate(155.4043,196.7148)"><path
             d="M 0,0 V 103.827 H 99.719 V -51.268"
             style="fill:none;stroke:#f00;stroke-width:15;stroke-linecap:round;stroke-linejoin:round;stroke-miterlimit:10;stroke-dasharray:none;stroke-opacity:1"
             id="path4598" /></g><path
           d="M 332.058,449.237 H 279.965 V 504.5 h 52.093 z"
           style="fill:none;stroke:#f00;stroke-width:15;stroke-linecap:round;stroke-linejoin:round;stroke-miterlimit:10;stroke-dasharray:none;stroke-opacity:1"
           id="path4600" /><g
           id="g4602"
           transform="translate(255.4272,145.4473)"><path
             d="M 0,0 V 303.79 H 101.168 V 49.989"
             style="fill:none;stroke:#f00;stroke-width:15;stroke-linecap:round;stroke-linejoin:round;stroke-miterlimit:10;stroke-dasharray:none;stroke-opacity:1"
             id="path4604" /></g><g
           id="g4606"
           transform="translate(189.3989,340.2773)"><path
             d="M 0,0 V -38.449"
             style="fill:none;stroke:#f00;stroke-width:15;stroke-linecap:round;stroke-linejoin:round;stroke-miterlimit:10;stroke-dasharray:none;stroke-opacity:1"
             id="path4608" /></g><g
           id="g4610"
           transform="translate(220.1411,372.3223)"><path
             d="M 0,0 V -70.494"
             style="fill:none;stroke:#f00;stroke-width:15;stroke-linecap:round;stroke-linejoin:round;stroke-miterlimit:10;stroke-dasharray:none;stroke-opacity:1"
             id="path4612" /></g><g
           id="g4614"
           transform="translate(188.27,262.3789)"><path
             d="M 0,0 V -15.379"
             style="fill:none;stroke:#f00;stroke-width:15;stroke-linecap:round;stroke-linejoin:round;stroke-miterlimit:10;stroke-dasharray:none;stroke-opacity:1"
             id="path4616" /></g><g
           id="g4618"
           transform="translate(188.27,208.248)"><path
             d="M 0,0 V -15.38"
             style="fill:none;stroke:#f00;stroke-width:15;stroke-linecap:round;stroke-linejoin:round;stroke-miterlimit:10;stroke-dasharray:none;stroke-opacity:1"
             id="path4620" /></g><g
           id="g4622"
           transform="translate(221.27,262.3789)"><path
             d="M 0,0 V -15.379"
             style="fill:none;stroke:#f00;stroke-width:15;stroke-linecap:round;stroke-linejoin:round;stroke-miterlimit:10;stroke-dasharray:none;stroke-opacity:1"
             id="path4624" /></g><g
           id="g4626"
           transform="translate(221.27,208.248)"><path
             d="M 0,0 V -15.38"
             style="fill:none;stroke:#f00;stroke-width:15;stroke-linecap:round;stroke-linejoin:round;stroke-miterlimit:10;stroke-dasharray:none;stroke-opacity:1"
             id="path4628" /></g></g></g></g></svg>
