<svg id="line" height="512" viewBox="0 0 64 64" fill="#f00" width="512" xmlns="http://www.w3.org/2000/svg"><path d="m19.85656 44.60168h-11.89529a1.97551 1.97551 0 0 1 -1.97359-1.97311v-30.35319l24.36018 13.89962a2.92439 2.92439 0 0 0 2.89-.00195l24.27914-13.89449v25.39356a1.00061 1.00061 0 0 0 2.001-.00006v-28.74745a3.97917 3.97917 0 0 0 -3.97454-3.97454h-47.58219a3.97917 3.97917 0 0 0 -3.97454 3.97454v33.704a3.97875 3.97875 0 0 0 3.97454 3.974h11.89529a1.00063 1.00063 0 0 0 0-2.00093zm-13.86888-35.67707a1.97561 1.97561 0 0 1 1.97359-1.97361h47.58212a1.97561 1.97561 0 0 1 1.97361 1.97361v1.04762l-25.27371 14.46364a.91391.91391 0 0 1 -.90473.001l-25.35088-14.46487z"/><path d="m58.09245 42.49374-19.93034-9.96468a3.47546 3.47546 0 0 0 -4.85094 4.20854l2.80016 8.39949a1.47511 1.47511 0 0 1 0 .93159l-2.80016 8.39851a3.47546 3.47546 0 0 0 4.85094 4.20854l19.93034-9.96473a3.4979 3.4979 0 0 0 0-6.21726zm-.895 4.42739-19.9303 9.96469a1.47488 1.47488 0 0 1 -2.05859-1.78552l2.80015-8.39753c.01093-.03267.01466-.06717.02461-.10015h8.53707a1.00047 1.00047 0 1 0 0-2.00094h-8.53739c-.00983-.03249-.0135-.0665-.02431-.09868l-2.80015-8.39852a1.48141 1.48141 0 0 1 2.05867-1.78548l19.93029 9.96465a1.482 1.482 0 0 1 0 2.63748z"/><path d="m30.81194 51.096h-4.33017a1.00066 1.00066 0 0 0 .00006 2.001h4.33011a1.00066 1.00066 0 0 0 0-2.001z"/><path d="m30.81194 44.60168h-6.49429a1.00047 1.00047 0 1 0 0 2.00094h6.49429a1.00066 1.00066 0 0 0 0-2.00094z"/><path d="m30.81194 38.10787h-4.33017a1.00066 1.00066 0 0 0 .00006 2.001h4.33011a1.00066 1.00066 0 0 0 0-2.001z"/></svg>