<svg enable-background="new 0 0 512 512" fill="#f00" viewBox="0 0 512 512" xmlns="http://www.w3.org/2000/svg"><g id="_x32_4_Customs_Clearance"><g><path d="m434.193 333.73-77.964-41.091v-203.739c0-20.936-17.031-38.045-37.889-38.045h-25.233c-1.172-10.546-10.078-18.827-21.014-18.827h-12.421c-9.062-15.936-26.092-26.014-44.685-26.014s-35.623 10.077-44.685 26.014h-12.499c-10.859 0-19.765 8.281-21.014 18.827h-25.233c-20.859 0-37.889 17.108-37.889 38.045v284.359c0 20.936 17.03 37.966 37.889 37.966h147.023v43.591c0 2.969 1.562 5.624 4.14 6.952l82.105 43.279c.703.391 2.5.937 3.671.937 1.094 0 2.813-.469 3.594-.937l82.105-43.279c2.578-1.328 4.14-3.984 4.14-6.952v-114.134c-.001-2.421-1.407-5.468-4.141-6.952zm-85.698-27.577 65.309 34.529-25.858 13.593-61.559-36.404zm-89.917 34.529v54.919h-147.022c-12.265 0-22.265-10-22.265-22.342v-284.359c0-12.343 10-22.421 22.265-22.421h24.998v7.109c0 11.718 9.531 21.249 21.249 21.249h114.29c11.718 0 21.249-9.531 21.249-21.249v-7.108h24.999c12.265 0 22.265 10.077 22.265 22.421v203.738l-77.886 41.091c-2.58 1.406-4.142 4.375-4.142 6.952zm89.917 34.452-65.387-34.451 27.03-14.296 61.637 36.482zm74.214 74.995-66.402 35.076v-96.479l23.593-12.499v21.561c0 4.297 3.516 7.812 7.812 7.812 4.375 0 7.812-3.515 7.812-7.812v-29.842l27.186-14.296v96.479z"/><path d="m175.757 163.991h109.796c4.318 0 7.812-3.498 7.812-7.812s-3.494-7.812-7.812-7.812h-109.796c-4.318 0-7.812 3.498-7.812 7.812 0 4.315 3.494 7.812 7.812 7.812z"/><path d="m175.757 226.583h109.796c4.318 0 7.812-3.498 7.812-7.812s-3.494-7.812-7.812-7.812h-109.796c-4.318 0-7.812 3.498-7.812 7.812s3.494 7.812 7.812 7.812z"/><path d="m175.757 289.179h109.796c4.318 0 7.812-3.498 7.812-7.812s-3.494-7.812-7.812-7.812h-109.796c-4.318 0-7.812 3.498-7.812 7.812s3.494 7.812 7.812 7.812z"/><path d="m235.278 336.898h-59.521c-4.318 0-7.812 3.498-7.812 7.812s3.494 7.812 7.812 7.812h59.521c4.318 0 7.812-3.498 7.812-7.812s-3.494-7.812-7.812-7.812z"/><path d="m154.287 140.225v31.951c0 4.297-3.437 7.812-7.812 7.812h-31.951c-4.297 0-7.812-3.515-7.812-7.812v-31.951c0-4.375 3.515-7.812 7.812-7.812h31.951c4.375 0 7.812 3.438 7.812 7.812z"/><path d="m154.287 265.375v31.951c0 4.375-3.437 7.812-7.812 7.812h-31.951c-4.297 0-7.812-3.437-7.812-7.812v-31.951c0-4.297 3.515-7.812 7.812-7.812h31.951c4.375 0 7.812 3.515 7.812 7.812z"/><path d="m125.742 237.271c1.849 1.42 4.188 1.912 6.355 1.457 2.228-.462 4.143-1.873 5.249-3.864l15.99-28.864c2.09-3.773.725-8.525-3.052-10.616-3.761-2.094-8.529-.729-10.62 3.048l-11.588 20.919-8.789-6.771c-3.425-2.632-8.338-1.995-10.955 1.427-2.632 3.418-1.999 8.323 1.419 10.955z"/><path d="m150.284 322.456c-3.761-2.102-8.529-.725-10.62 3.048l-11.588 20.919-8.789-6.771c-3.425-2.632-8.338-1.995-10.955 1.427-2.632 3.418-1.999 8.323 1.419 10.955l15.99 12.309c1.849 1.42 4.188 1.912 6.355 1.457 2.228-.462 4.143-1.873 5.249-3.864l15.99-28.864c2.091-3.773.725-8.525-3.051-10.616z"/></g></g><g id="Layer_1"/></svg>