<svg id="Layer_1" enable-background="new 0 0 500 500" fill="#f00" viewBox="0 0 500 500" xmlns="http://www.w3.org/2000/svg"><path clip-rule="evenodd" d="m86.509 180.365v-26.535c0-3.509 2.872-6.347 6.376-6.347s6.318 2.837 6.318 6.347v20.183h15.393c3.503 0 6.376 2.843 6.376 6.352 0 3.503-2.872 6.347-6.376 6.347h-21.712c-3.503-.001-6.375-2.844-6.375-6.347zm165.838-154.37h-4.637c-39.308 1.229-70.912 33.583-70.912 73.179 0 40.372 32.853 73.219 73.231 73.219 40.377 0 73.231-32.848 73.231-73.219-.001-39.596-31.604-71.95-70.913-73.179zm-209.317 160.716c2.872 22.653 20.849 40.647 43.479 43.513v-5.123c0-3.509 2.872-6.347 6.376-6.347s6.318 2.837 6.318 6.347v5.123c22.687-2.866 40.665-20.861 43.536-43.513h-5.112c-3.503 0-6.375-2.843-6.375-6.347 0-3.509 2.872-6.352 6.375-6.352h5.112c-2.872-22.653-20.849-40.642-43.536-43.514v5.123c0 3.509-2.814 6.352-6.318 6.352-3.503 0-6.376-2.843-6.376-6.352v-5.123c-22.63 2.872-40.607 20.861-43.479 43.514h5.112c3.504 0 6.318 2.843 6.318 6.352 0 3.503-2.814 6.347-6.318 6.347zm112.804-6.346c0-34.726-28.258-62.978-62.95-62.978-34.749 0-63.007 28.253-63.007 62.978 0 34.72 28.259 62.973 63.007 62.973 34.692-.001 62.95-28.253 62.95-62.973zm256.508-3.642c1.608 2.309 1.551 5.405-.23 7.605l-11.028 13.813c-2.198 2.74-6.173 3.177-8.96.994-2.757-2.194-3.159-6.186-.976-8.926l8.098-10.103-16.599-23.727c-2.068-2.872-1.321-6.829 1.551-8.839s6.835-1.315 8.788 1.562zm1.149 53.502c22.63-2.866 40.664-20.861 43.536-43.513h-5.112c-3.504 0-6.376-2.843-6.376-6.347 0-3.509 2.872-6.352 6.376-6.352h5.112c-2.872-22.653-20.907-40.642-43.536-43.514v5.123c0 3.509-2.814 6.352-6.318 6.352s-6.375-2.843-6.375-6.352v-5.123c-22.63 2.872-40.607 20.861-43.536 43.514h5.169c3.503 0 6.318 2.843 6.318 6.352 0 3.503-2.814 6.347-6.318 6.347h-5.169c2.929 22.653 20.906 40.647 43.536 43.513v-5.123c0-3.509 2.872-6.347 6.375-6.347s6.318 2.837 6.318 6.347zm-6.318-112.839c-34.749 0-63.007 28.253-63.007 62.978 0 34.72 28.258 62.973 63.007 62.973 34.691 0 62.95-28.253 62.95-62.973 0-34.725-28.259-62.978-62.95-62.978zm-127.392 155.491c0 16.421-13.383 29.775-29.752 29.775-16.427 0-29.809-13.354-29.809-29.775 0-16.415 13.382-29.775 29.809-29.775 16.369 0 29.752 13.359 29.752 29.775zm-72.255 0c0 23.417 19.069 42.474 42.502 42.474 23.376 0 42.445-19.057 42.445-42.474s-19.069-42.468-42.445-42.468c-23.433 0-42.502 19.051-42.502 42.468zm154.962 10.074c2.068-2.395 3.102-5.474 2.872-8.673-.763-10.623-13.976-15.002-20.906-7.024l-57.551 66.114c-9.592 10.987-22.342 16.788-36.874 16.788-14.589 0-27.339-5.801-36.874-16.788l-57.55-66.114c-7.048-8.01-20.304-3.484-20.964 7.024-.172 3.199.804 6.278 2.929 8.673l55.425 67.292c6.548 7.932 10.166 16.668 11.028 26.593h.976c8.673 0 15.737 7.053 15.737 15.726v65.712c0 1.039-.115 2.05-.287 3.033h68.004c4.078 0 7.409-3.303 7.409-7.363v-72.605c0-11.815 3.618-21.986 11.143-31.096zm-263.401 178.355c-1.665 0-3.044-1.39-3.044-3.033v-55.19l49.624 26.168v2.424c0 3.509 2.872 6.346 6.376 6.346 3.503 0 6.318-2.837 6.318-6.346v-2.424l49.682-26.168v55.19c0 1.643-1.379 3.033-3.044 3.033zm105.912-71.771 1.091.218-47.729 25.163c-.811-7.506-11.825-7.506-12.636 0l-47.729-25.163 1.091-.218zm-64.443-21.637c0-1.269.402-2.136.689-2.504h21.596c.23.368.689 1.235.689 2.504v8.937h-22.974zm229.112-111.391c10.286 8.982 11.296 24.227 2.412 34.708l-55.253 67.096c-5.686 6.846-8.271 14.158-8.271 23.026v72.605c0 11.062-9.017 20.063-20.103 20.063h-76.906c-1.149 0-2.297-.115-3.446-.31-.976.201-2.01.31-3.102.31h-105.912c-8.673 0-15.737-7.059-15.737-15.732v-65.712c0-8.673 7.065-15.726 15.737-15.726h28.776v-8.937c0-8.523 5.686-15.197 12.866-15.197h22.572c7.237 0 12.923 6.674 12.923 15.197v8.937h14.991c-.747-6.904-3.331-12.871-7.984-18.523l-55.311-67.096c-4.25-4.939-6.375-11.263-5.916-17.817 1.537-21.973 28.846-30.897 43.134-14.479l57.55 66.109c7.179 8.254 16.369 12.435 27.339 12.435 10.913 0 20.103-4.181 27.282-12.435l57.551-66.109c8.904-10.253 24.526-11.332 34.808-2.413zm-124.636-153.365c-1.723-2.206-1.838-5.301-.23-7.61l22.859-32.618c2.01-2.872 5.973-3.572 8.845-1.562 2.872 2.016 3.561 5.973 1.551 8.845l-20.102 28.724 10.051 12.596c3.358 4.212.249 10.316-4.939 10.316-1.838 0-3.734-.816-4.94-2.384zm-1.379-64.156v7.501c0 3.509 2.872 6.346 6.375 6.346 3.504 0 6.318-2.837 6.318-6.346v-7.501c28.316 2.969 50.888 25.53 53.875 53.84h-7.524c-3.504 0-6.375 2.843-6.375 6.347 0 3.509 2.872 6.347 6.375 6.347h7.524c-2.987 28.316-25.559 50.877-53.875 53.84v-7.501c0-3.504-2.814-6.347-6.318-6.347-3.503 0-6.375 2.843-6.375 6.347v7.501c-28.316-2.964-50.888-25.525-53.818-53.84h7.467c3.561 0 6.375-2.837 6.375-6.347 0-3.503-2.814-6.347-6.375-6.347h-7.467c2.93-28.309 25.503-50.87 53.818-53.84z" fill-rule="evenodd"/></svg>